<?xml version="1.0" encoding="UTF-8" standalone="no"?>
<svg
    xmlns="http://www.w3.org/2000/svg" version="1.1"
    xmlns:freecad="http://www.freecadweb.org/wiki/index.php?title=Svg_Namespace"
    width="420mm"
    height="297mm"
    viewBox="0 0 420 297">
<line id="segm1:Line" x1="270" y1="10" x2="270" y2="46" style="stroke: black; stroke-width: 0.26249999999999996pt; stroke-linecap: round; stroke-linejoin:round;"/>
<line id="segm2:Line" x1="280" y1="16" x2="280" y2="46" style="stroke: black; stroke-width: 0.26249999999999996pt; stroke-linecap: round; stroke-linejoin:round;"/>
<line id="segm3:Line" x1="290" y1="16" x2="290" y2="46" style="stroke: black; stroke-width: 0.26249999999999996pt; stroke-linecap: round; stroke-linejoin:round;"/>
<line id="segm4:Line" x1="360" y1="16" x2="360" y2="46" style="stroke: black; stroke-width: 0.26249999999999996pt; stroke-linecap: round; stroke-linejoin:round;"/>
<line id="segm5:Line" x1="385" y1="16" x2="385" y2="46" style="stroke: black; stroke-width: 0.26249999999999996pt; stroke-linecap: round; stroke-linejoin:round;"/>
<line id="segm6:Line" x1="410" y1="10" x2="410" y2="60" style="stroke: black; stroke-width: 0.26249999999999996pt; stroke-linecap: round; stroke-linejoin:round;"/>
<line id="segm7:Line" x1="410" y1="10" x2="270" y2="10" style="stroke: black; stroke-width: 0.26249999999999996pt; stroke-linecap: round; stroke-linejoin:round;"/>
<line id="segm8:Line" x1="410" y1="16" x2="270" y2="16" style="stroke: black; stroke-width: 0.26249999999999996pt; stroke-linecap: round; stroke-linejoin:round;"/>
<line id="segm9:Line" x1="410" y1="22" x2="270" y2="22" style="stroke: black; stroke-width: 0.26249999999999996pt; stroke-linecap: round; stroke-linejoin:round;"/>
<line id="segm10:Line" x1="410" y1="28" x2="270" y2="28" style="stroke: black; stroke-width: 0.26249999999999996pt; stroke-linecap: round; stroke-linejoin:round;"/>
<line id="segm11:Line" x1="410" y1="34" x2="270" y2="34" style="stroke: black; stroke-width: 0.26249999999999996pt; stroke-linecap: round; stroke-linejoin:round;"/>
<line id="segm12:Line" x1="410" y1="40" x2="270" y2="40" style="stroke: black; stroke-width: 0.26249999999999996pt; stroke-linecap: round; stroke-linejoin:round;"/>
<line id="segm13:Line" x1="410" y1="46" x2="270" y2="46" style="stroke: black; stroke-width: 0.26249999999999996pt; stroke-linecap: round; stroke-linejoin:round;"/>
<text x="340" y="13" transform="translate(0,0.875)" id="text1:Text" style="font-size: 2.5pt; text-anchor: middle; fill: black; font-family: osifont">REVISION HISTORY</text>
<text x="275" y="19" transform="translate(0,0.875)" id="text2:Text" style="font-size: 2.5pt; text-anchor: middle; fill: black; font-family: osifont">ZONE</text>
<text x="285" y="19" transform="translate(0,0.875)" id="text3:Text" style="font-size: 2.5pt; text-anchor: middle; fill: black; font-family: osifont">REV</text>
<text x="325" y="19" transform="translate(0,0.875)" id="text4:Text" style="font-size: 2.5pt; text-anchor: middle; fill: black; font-family: osifont">DESCRIPTION</text>
<text x="397.5" y="19" transform="translate(0,0.875)" id="text6:Text" style="font-size: 2.5pt; text-anchor: middle; fill: black; font-family: osifont">APPROVED</text>
<text x="372.5" y="19" transform="translate(0,0.875)" id="text7:Text" style="font-size: 2.5pt; text-anchor: middle; fill: black; font-family: osifont">DATE</text>
<rect x="15" y="5" width="400" height="287" id="rect1:Rect" style="stroke: black; stroke-width: 0.26249999999999996pt; stroke-linecap: round; stroke-linejoin: round; fill: none;"/>
<rect x="20" y="10" width="390" height="277" id="rect2:Rect" style="stroke: black; stroke-width: 0.5249999999999999pt; stroke-linecap: round; stroke-linejoin: round; fill: none;"/>
<line id="segm19:Line" x1="210" y1="5" x2="210" y2="15" style="stroke: black; stroke-width: 0.5249999999999999pt; stroke-linecap: round; stroke-linejoin:round;"/>
<line id="segm20:Line" x1="210" y1="292" x2="210" y2="282" style="stroke: black; stroke-width: 0.5249999999999999pt; stroke-linecap: round; stroke-linejoin:round;"/>
<line id="segm21:Line" x1="15" y1="148.5" x2="25" y2="148.5" style="stroke: black; stroke-width: 0.5249999999999999pt; stroke-linecap: round; stroke-linejoin:round;"/>
<line id="segm22:Line" x1="415" y1="148.5" x2="405" y2="148.5" style="stroke: black; stroke-width: 0.5249999999999999pt; stroke-linecap: round; stroke-linejoin:round;"/>
<line id="segm23:Line" x1="60" y1="5" x2="60" y2="10" style="stroke: black; stroke-width: 0.26249999999999996pt; stroke-linecap: round; stroke-linejoin:round;"/>
<line id="segm24:Line" x1="110" y1="5" x2="110" y2="10" style="stroke: black; stroke-width: 0.26249999999999996pt; stroke-linecap: round; stroke-linejoin:round;"/>
<line id="segm25:Line" x1="160" y1="5" x2="160" y2="10" style="stroke: black; stroke-width: 0.26249999999999996pt; stroke-linecap: round; stroke-linejoin:round;"/>
<line id="segm26:Line" x1="210" y1="5" x2="210" y2="10" style="stroke: black; stroke-width: 0.26249999999999996pt; stroke-linecap: round; stroke-linejoin:round;"/>
<line id="segm27:Line" x1="260" y1="5" x2="260" y2="10" style="stroke: black; stroke-width: 0.26249999999999996pt; stroke-linecap: round; stroke-linejoin:round;"/>
<line id="segm28:Line" x1="310" y1="5" x2="310" y2="10" style="stroke: black; stroke-width: 0.26249999999999996pt; stroke-linecap: round; stroke-linejoin:round;"/>
<line id="segm29:Line" x1="360" y1="5" x2="360" y2="10" style="stroke: black; stroke-width: 0.26249999999999996pt; stroke-linecap: round; stroke-linejoin:round;"/>
<line id="segm30:Line" x1="60" y1="292" x2="60" y2="287" style="stroke: black; stroke-width: 0.26249999999999996pt; stroke-linecap: round; stroke-linejoin:round;"/>
<line id="segm31:Line" x1="110" y1="292" x2="110" y2="287" style="stroke: black; stroke-width: 0.26249999999999996pt; stroke-linecap: round; stroke-linejoin:round;"/>
<line id="segm32:Line" x1="160" y1="292" x2="160" y2="287" style="stroke: black; stroke-width: 0.26249999999999996pt; stroke-linecap: round; stroke-linejoin:round;"/>
<line id="segm33:Line" x1="210" y1="292" x2="210" y2="287" style="stroke: black; stroke-width: 0.26249999999999996pt; stroke-linecap: round; stroke-linejoin:round;"/>
<line id="segm34:Line" x1="260" y1="292" x2="260" y2="287" style="stroke: black; stroke-width: 0.26249999999999996pt; stroke-linecap: round; stroke-linejoin:round;"/>
<line id="segm35:Line" x1="310" y1="292" x2="310" y2="287" style="stroke: black; stroke-width: 0.26249999999999996pt; stroke-linecap: round; stroke-linejoin:round;"/>
<line id="segm36:Line" x1="360" y1="292" x2="360" y2="287" style="stroke: black; stroke-width: 0.26249999999999996pt; stroke-linecap: round; stroke-linejoin:round;"/>
<line id="segm37:Line" x1="15" y1="48.5" x2="20" y2="48.5" style="stroke: black; stroke-width: 0.26249999999999996pt; stroke-linecap: round; stroke-linejoin:round;"/>
<line id="segm38:Line" x1="15" y1="98.5" x2="20" y2="98.5" style="stroke: black; stroke-width: 0.26249999999999996pt; stroke-linecap: round; stroke-linejoin:round;"/>
<line id="segm39:Line" x1="15" y1="148.5" x2="20" y2="148.5" style="stroke: black; stroke-width: 0.26249999999999996pt; stroke-linecap: round; stroke-linejoin:round;"/>
<line id="segm40:Line" x1="15" y1="198.5" x2="20" y2="198.5" style="stroke: black; stroke-width: 0.26249999999999996pt; stroke-linecap: round; stroke-linejoin:round;"/>
<line id="segm41:Line" x1="15" y1="248.5" x2="20" y2="248.5" style="stroke: black; stroke-width: 0.26249999999999996pt; stroke-linecap: round; stroke-linejoin:round;"/>
<line id="segm42:Line" x1="415" y1="48.5" x2="410" y2="48.5" style="stroke: black; stroke-width: 0.26249999999999996pt; stroke-linecap: round; stroke-linejoin:round;"/>
<line id="segm43:Line" x1="415" y1="98.5" x2="410" y2="98.5" style="stroke: black; stroke-width: 0.26249999999999996pt; stroke-linecap: round; stroke-linejoin:round;"/>
<line id="segm44:Line" x1="415" y1="148.5" x2="410" y2="148.5" style="stroke: black; stroke-width: 0.26249999999999996pt; stroke-linecap: round; stroke-linejoin:round;"/>
<line id="segm45:Line" x1="415" y1="198.5" x2="410" y2="198.5" style="stroke: black; stroke-width: 0.26249999999999996pt; stroke-linecap: round; stroke-linejoin:round;"/>
<line id="segm46:Line" x1="415" y1="248.5" x2="410" y2="248.5" style="stroke: black; stroke-width: 0.26249999999999996pt; stroke-linecap: round; stroke-linejoin:round;"/>
<text x="35" y="7.5" transform="translate(0,1.2249999999999999)" id="text8:Text" style="font-size: 3.5pt; text-anchor: middle; fill: black; font-family: osifont">1</text>
<text x="85" y="7.5" transform="translate(0,1.2249999999999999)" id="text9:Text" style="font-size: 3.5pt; text-anchor: middle; fill: black; font-family: osifont">2</text>
<text x="135" y="7.5" transform="translate(0,1.2249999999999999)" id="text10:Text" style="font-size: 3.5pt; text-anchor: middle; fill: black; font-family: osifont">3</text>
<text x="185" y="7.5" transform="translate(0,1.2249999999999999)" id="text11:Text" style="font-size: 3.5pt; text-anchor: middle; fill: black; font-family: osifont">4</text>
<text x="235" y="7.5" transform="translate(0,1.2249999999999999)" id="text12:Text" style="font-size: 3.5pt; text-anchor: middle; fill: black; font-family: osifont">5</text>
<text x="285" y="7.5" transform="translate(0,1.2249999999999999)" id="text13:Text" style="font-size: 3.5pt; text-anchor: middle; fill: black; font-family: osifont">6</text>
<text x="335" y="7.5" transform="translate(0,1.2249999999999999)" id="text14:Text" style="font-size: 3.5pt; text-anchor: middle; fill: black; font-family: osifont">7</text>
<text x="385" y="7.5" transform="translate(0,1.2249999999999999)" id="text15:Text" style="font-size: 3.5pt; text-anchor: middle; fill: black; font-family: osifont">8</text>
<text x="35" y="289.5" transform="translate(0,1.2249999999999999)" id="text16:Text" style="font-size: 3.5pt; text-anchor: middle; fill: black; font-family: osifont">1</text>
<text x="85" y="289.5" transform="translate(0,1.2249999999999999)" id="text17:Text" style="font-size: 3.5pt; text-anchor: middle; fill: black; font-family: osifont">2</text>
<text x="135" y="289.5" transform="translate(0,1.2249999999999999)" id="text18:Text" style="font-size: 3.5pt; text-anchor: middle; fill: black; font-family: osifont">3</text>
<text x="185" y="289.5" transform="translate(0,1.2249999999999999)" id="text19:Text" style="font-size: 3.5pt; text-anchor: middle; fill: black; font-family: osifont">4</text>
<text x="235" y="289.5" transform="translate(0,1.2249999999999999)" id="text20:Text" style="font-size: 3.5pt; text-anchor: middle; fill: black; font-family: osifont">5</text>
<text x="285" y="289.5" transform="translate(0,1.2249999999999999)" id="text21:Text" style="font-size: 3.5pt; text-anchor: middle; fill: black; font-family: osifont">6</text>
<text x="335" y="289.5" transform="translate(0,1.2249999999999999)" id="text22:Text" style="font-size: 3.5pt; text-anchor: middle; fill: black; font-family: osifont">7</text>
<text x="385" y="289.5" transform="translate(0,1.2249999999999999)" id="text23:Text" style="font-size: 3.5pt; text-anchor: middle; fill: black; font-family: osifont">A3</text>
<text x="17.5" y="23.5" transform="translate(0,1.2249999999999999)" id="text24:Text" style="font-size: 3.5pt; text-anchor: middle; fill: black; font-family: osifont">A</text>
<text x="17.5" y="73.5" transform="translate(0,1.2249999999999999)" id="text25:Text" style="font-size: 3.5pt; text-anchor: middle; fill: black; font-family: osifont">B</text>
<text x="17.5" y="123.5" transform="translate(0,1.2249999999999999)" id="text26:Text" style="font-size: 3.5pt; text-anchor: middle; fill: black; font-family: osifont">C</text>
<text x="17.5" y="173.5" transform="translate(0,1.2249999999999999)" id="text27:Text" style="font-size: 3.5pt; text-anchor: middle; fill: black; font-family: osifont">D</text>
<text x="17.5" y="223.5" transform="translate(0,1.2249999999999999)" id="text28:Text" style="font-size: 3.5pt; text-anchor: middle; fill: black; font-family: osifont">E</text>
<text x="17.5" y="273.5" transform="translate(0,1.2249999999999999)" id="text29:Text" style="font-size: 3.5pt; text-anchor: middle; fill: black; font-family: osifont">F</text>
<text x="412.5" y="23.5" transform="translate(0,1.2249999999999999)" id="text30:Text" style="font-size: 3.5pt; text-anchor: middle; fill: black; font-family: osifont">A</text>
<text x="412.5" y="73.5" transform="translate(0,1.2249999999999999)" id="text31:Text" style="font-size: 3.5pt; text-anchor: middle; fill: black; font-family: osifont">B</text>
<text x="412.5" y="123.5" transform="translate(0,1.2249999999999999)" id="text32:Text" style="font-size: 3.5pt; text-anchor: middle; fill: black; font-family: osifont">C</text>
<text x="412.5" y="173.5" transform="translate(0,1.2249999999999999)" id="text33:Text" style="font-size: 3.5pt; text-anchor: middle; fill: black; font-family: osifont">D</text>
<text x="412.5" y="223.5" transform="translate(0,1.2249999999999999)" id="text34:Text" style="font-size: 3.5pt; text-anchor: middle; fill: black; font-family: osifont">E</text>
<text x="412.5" y="273.5" transform="translate(0,1.2249999999999999)" id="text35:Text" style="font-size: 3.5pt; text-anchor: middle; fill: black; font-family: osifont">F</text>
<g transform="translate(0,0)"><polygon id="poly1:Poly" transform="rotate(0)" points="0,0 10,0 10,5 5,5 5,10 0,10 0,0 " style="fill: solid black; stroke-width: 0.26249999999999996pt; stroke-linecap: round; stroke-linejoin: round;"/></g>
<g transform="translate(0,297)"><polygon id="poly2:Poly" transform="rotate(270)" points="0,0 10,0 10,5 5,5 5,10 0,10 0,0 " style="fill: solid black; stroke-width: 0.26249999999999996pt; stroke-linecap: round; stroke-linejoin: round;"/></g>
<g transform="translate(420,0)"><polygon id="poly3:Poly" transform="rotate(450)" points="0,0 10,0 10,5 5,5 5,10 0,10 0,0 " style="fill: solid black; stroke-width: 0.26249999999999996pt; stroke-linecap: round; stroke-linejoin: round;"/></g>
<g transform="translate(420,297)"><polygon id="poly4:Poly" transform="rotate(180)" points="0,0 10,0 10,5 5,5 5,10 0,10 0,0 " style="fill: solid black; stroke-width: 0.26249999999999996pt; stroke-linecap: round; stroke-linejoin: round;"/></g>
<rect x="230" y="260" width="180" height="27" id="rect3:Rect" style="stroke: black; stroke-width: 0.5249999999999999pt; stroke-linecap: round; stroke-linejoin: round; fill: none;"/>
<line id="segm41:Line" x1="410" y1="269" x2="230" y2="269" style="stroke: black; stroke-width: 0.26249999999999996pt; stroke-linecap: round; stroke-linejoin:round;"/>
<line id="segm42:Line" x1="304" y1="278" x2="262" y2="278" style="stroke: black; stroke-width: 0.26249999999999996pt; stroke-linecap: round; stroke-linejoin:round;"/>
<line id="segm43:Line" x1="410" y1="278" x2="359" y2="278" style="stroke: black; stroke-width: 0.26249999999999996pt; stroke-linecap: round; stroke-linejoin:round;"/>
<line id="segm44:Line" x1="262" y1="287" x2="262" y2="260" style="stroke: black; stroke-width: 0.26249999999999996pt; stroke-linecap: round; stroke-linejoin:round;"/>
<line id="segm45:Line" x1="304" y1="260" x2="304" y2="287" style="stroke: black; stroke-width: 0.26249999999999996pt; stroke-linecap: round; stroke-linejoin:round;"/>
<line id="segm46:Line" x1="359" y1="269" x2="359" y2="287" style="stroke: black; stroke-width: 0.26249999999999996pt; stroke-linecap: round; stroke-linejoin:round;"/>
<line id="segm47:Line" x1="365" y1="260" x2="365" y2="269" style="stroke: black; stroke-width: 0.26249999999999996pt; stroke-linecap: round; stroke-linejoin:round;"/>
<line id="segm48:Line" x1="368" y1="278" x2="368" y2="287" style="stroke: black; stroke-width: 0.26249999999999996pt; stroke-linecap: round; stroke-linejoin:round;"/>
<line id="segm49:Line" x1="392" y1="278" x2="392" y2="287" style="stroke: black; stroke-width: 0.26249999999999996pt; stroke-linecap: round; stroke-linejoin:round;"/>
<line id="segm50:Line" x1="401" y1="278" x2="401" y2="287" style="stroke: black; stroke-width: 0.26249999999999996pt; stroke-linecap: round; stroke-linejoin:round;"/>
<text x="231" y="262" transform="translate(0,0.7)" id="text41:Text" style="font-size: 2pt; text-anchor: start; fill: black; font-family: osifont">Responsible dept.</text>
<text x="263" y="262" transform="translate(0,0.7)" id="text42:Text" style="font-size: 2pt; text-anchor: start; fill: black; font-family: osifont">Technical reference</text>
<text x="263" y="271" transform="translate(0,0.7)" id="text43:Text" style="font-size: 2pt; text-anchor: start; fill: black; font-family: osifont">Created by</text>
<text x="263" y="280" transform="translate(0,0.7)" id="text44:Text" style="font-size: 2pt; text-anchor: start; fill: black; font-family: osifont">Approved by</text>
<text x="305" y="262" transform="translate(0,0.7)" id="text45:Text" style="font-size: 2pt; text-anchor: start; fill: black; font-family: osifont">Document type</text>
<text x="366" y="262" transform="translate(0,0.7)" id="text46:Text" style="font-size: 2pt; text-anchor: start; fill: black; font-family: osifont">Document status</text>
<text x="305" y="271" transform="translate(0,0.7)" id="text47:Text" style="font-size: 2pt; text-anchor: start; fill: black; font-family: osifont">Title, Supplementary title</text>
<text x="360" y="280" transform="translate(0,0.7)" id="text48:Text" style="font-size: 2pt; text-anchor: start; fill: black; font-family: osifont">Rev.</text>
<text x="369" y="280" transform="translate(0,0.7)" id="text49:Text" style="font-size: 2pt; text-anchor: start; fill: black; font-family: osifont">Date of issue</text>
<text x="392.5" y="280" transform="translate(0,0.7)" id="text50:Text" style="font-size: 2pt; text-anchor: start; fill: black; font-family: osifont">Lang.</text>
<text x="401" y="280" transform="translate(0,0.7)" id="text51:Text" style="font-size: 2pt; text-anchor: start; fill: black; font-family: osifont">Sheet</text>
<text freecad:editable="Organization" x="246" y="278" transform="translate(0,0.8049999999999999)" id="text52:Text" style="font-size: 2.3pt; text-anchor: middle; fill: black; font-family: osifont"><tspan>x</tspan></text>
<text freecad:editable="Comment 2" x="305" y="266" transform="translate(0,0.8049999999999999)" id="text53:Text" style="font-size: 2.3pt; text-anchor: start; fill: black; font-family: osifont"><tspan>x</tspan></text>
<text freecad:editable="Title" x="331.5" y="279" transform="translate(0,0.8049999999999999)" id="text54:Text" style="font-size: 2.3pt; text-anchor: middle; fill: black; font-family: osifont"><tspan>x</tspan></text>
<text freecad:editable="Comment 3" x="366" y="266" transform="translate(0,0.8049999999999999)" id="text55:Text" style="font-size: 2.3pt; text-anchor: start; fill: black; font-family: osifont"><tspan>x</tspan></text>
<text freecad:editable="Comment 1" x="384.5" y="273.5" transform="translate(0,0.8049999999999999)" id="text56:Text" style="font-size: 2.3pt; text-anchor: middle; fill: black; font-family: osifont"><tspan>x</tspan></text>
<text freecad:editable="Revision" x="363.5" y="284" transform="translate(0,0.8049999999999999)" id="text57:Text" style="font-size: 2.3pt; text-anchor: middle; fill: black; font-family: osifont"><tspan>x</tspan></text>
<text freecad:editable="Date" x="380" y="284" transform="translate(0,0.8049999999999999)" id="text58:Text" style="font-size: 2.3pt; text-anchor: middle; fill: black; font-family: osifont"><tspan>x</tspan></text>
<text freecad:editable="Comment 4" x="396.5" y="284" transform="translate(0,0.8049999999999999)" id="text59:Text" style="font-size: 2.3pt; text-anchor: middle; fill: black; font-family: osifont"><tspan>x</tspan></text>
<text freecad:editable="SheetNo" x="405.5" y="284" transform="translate(0,0.8049999999999999)" id="text60:Text" style="font-size: 2.3pt; text-anchor: middle; fill: black; font-family: osifont"><tspan>x</tspan></text>
</svg>
