<?xml version="1.0" encoding="UTF-8" standalone="no"?>
<!-- Generated with KiCAD2TechDraw: https://github.com/alexneufeld/KiCAD2TechDraw -->
<!-- Based on templates created by the KICAD developers: https://gitlab.com/kicad/libraries/kicad-templates -->

<svg
    xmlns="http://www.w3.org/2000/svg" version="1.1"
    xmlns:freecad="http://www.freecadweb.org/wiki/index.php?title=Svg_Namespace"
    width="210mm"
    height="297mm"
    viewBox="0 0 210 297">
<line id="segm1:Line" x1="60" y1="10" x2="60" y2="46" style="stroke: black; stroke-width: 0.26249999999999996pt; stroke-linecap: round; stroke-linejoin:round;"/>
<line id="segm2:Line" x1="70" y1="16" x2="70" y2="46" style="stroke: black; stroke-width: 0.26249999999999996pt; stroke-linecap: round; stroke-linejoin:round;"/>
<line id="segm3:Line" x1="80" y1="16" x2="80" y2="46" style="stroke: black; stroke-width: 0.26249999999999996pt; stroke-linecap: round; stroke-linejoin:round;"/>
<line id="segm4:Line" x1="150" y1="16" x2="150" y2="46" style="stroke: black; stroke-width: 0.26249999999999996pt; stroke-linecap: round; stroke-linejoin:round;"/>
<line id="segm5:Line" x1="175" y1="16" x2="175" y2="46" style="stroke: black; stroke-width: 0.26249999999999996pt; stroke-linecap: round; stroke-linejoin:round;"/>
<line id="segm6:Line" x1="200" y1="10" x2="200" y2="60" style="stroke: black; stroke-width: 0.26249999999999996pt; stroke-linecap: round; stroke-linejoin:round;"/>
<line id="segm7:Line" x1="200" y1="10" x2="60" y2="10" style="stroke: black; stroke-width: 0.26249999999999996pt; stroke-linecap: round; stroke-linejoin:round;"/>
<line id="segm8:Line" x1="200" y1="16" x2="60" y2="16" style="stroke: black; stroke-width: 0.26249999999999996pt; stroke-linecap: round; stroke-linejoin:round;"/>
<line id="segm9:Line" x1="200" y1="22" x2="60" y2="22" style="stroke: black; stroke-width: 0.26249999999999996pt; stroke-linecap: round; stroke-linejoin:round;"/>
<line id="segm10:Line" x1="200" y1="28" x2="60" y2="28" style="stroke: black; stroke-width: 0.26249999999999996pt; stroke-linecap: round; stroke-linejoin:round;"/>
<line id="segm11:Line" x1="200" y1="34" x2="60" y2="34" style="stroke: black; stroke-width: 0.26249999999999996pt; stroke-linecap: round; stroke-linejoin:round;"/>
<line id="segm12:Line" x1="200" y1="40" x2="60" y2="40" style="stroke: black; stroke-width: 0.26249999999999996pt; stroke-linecap: round; stroke-linejoin:round;"/>
<line id="segm13:Line" x1="200" y1="46" x2="60" y2="46" style="stroke: black; stroke-width: 0.26249999999999996pt; stroke-linecap: round; stroke-linejoin:round;"/>
<text x="130" y="13" transform="translate(0,0.875)" id="text1:Text" style="font-size: 2.5pt; text-anchor: middle; fill: black; font-family: osifont">REVISION HISTORY</text>
<text x="65" y="19" transform="translate(0,0.875)" id="text2:Text" style="font-size: 2.5pt; text-anchor: middle; fill: black; font-family: osifont">ZONE</text>
<text x="75" y="19" transform="translate(0,0.875)" id="text3:Text" style="font-size: 2.5pt; text-anchor: middle; fill: black; font-family: osifont">REV</text>
<text x="115" y="19" transform="translate(0,0.875)" id="text4:Text" style="font-size: 2.5pt; text-anchor: middle; fill: black; font-family: osifont">DESCRIPTION</text>
<text x="187.5" y="19" transform="translate(0,0.875)" id="text6:Text" style="font-size: 2.5pt; text-anchor: middle; fill: black; font-family: osifont">APPROVED</text>
<text x="162.5" y="19" transform="translate(0,0.875)" id="text7:Text" style="font-size: 2.5pt; text-anchor: middle; fill: black; font-family: osifont">DATE</text>
<rect x="15" y="5" width="190" height="287" id="rect1:Rect" style="stroke: black; stroke-width: 0.26249999999999996pt; stroke-linecap: round; stroke-linejoin: round; fill: none;"/>
<rect x="20" y="10" width="180" height="277" id="rect2:Rect" style="stroke: black; stroke-width: 0.5249999999999999pt; stroke-linecap: round; stroke-linejoin: round; fill: none;"/>
<line id="segm19:Line" x1="105" y1="5" x2="105" y2="10" style="stroke: black; stroke-width: 0.7875000000000001pt; stroke-linecap: round; stroke-linejoin:round;"/>
<line id="segm20:Line" x1="105" y1="292" x2="105" y2="287" style="stroke: black; stroke-width: 0.7875000000000001pt; stroke-linecap: round; stroke-linejoin:round;"/>
<line id="segm21:Line" x1="15" y1="148.5" x2="20" y2="148.5" style="stroke: black; stroke-width: 0.7875000000000001pt; stroke-linecap: round; stroke-linejoin:round;"/>
<line id="segm22:Line" x1="205" y1="148.5" x2="200" y2="148.5" style="stroke: black; stroke-width: 0.7875000000000001pt; stroke-linecap: round; stroke-linejoin:round;"/>
<line id="segm23:Line" x1="55" y1="5" x2="55" y2="10" style="stroke: black; stroke-width: 0.26249999999999996pt; stroke-linecap: round; stroke-linejoin:round;"/>
<line id="segm24:Line" x1="105" y1="5" x2="105" y2="10" style="stroke: black; stroke-width: 0.26249999999999996pt; stroke-linecap: round; stroke-linejoin:round;"/>
<line id="segm25:Line" x1="155" y1="5" x2="155" y2="10" style="stroke: black; stroke-width: 0.26249999999999996pt; stroke-linecap: round; stroke-linejoin:round;"/>
<line id="segm26:Line" x1="55" y1="292" x2="55" y2="287" style="stroke: black; stroke-width: 0.26249999999999996pt; stroke-linecap: round; stroke-linejoin:round;"/>
<line id="segm27:Line" x1="105" y1="292" x2="105" y2="287" style="stroke: black; stroke-width: 0.26249999999999996pt; stroke-linecap: round; stroke-linejoin:round;"/>
<line id="segm28:Line" x1="155" y1="292" x2="155" y2="287" style="stroke: black; stroke-width: 0.26249999999999996pt; stroke-linecap: round; stroke-linejoin:round;"/>
<line id="segm29:Line" x1="15" y1="48.5" x2="20" y2="48.5" style="stroke: black; stroke-width: 0.26249999999999996pt; stroke-linecap: round; stroke-linejoin:round;"/>
<line id="segm30:Line" x1="15" y1="98.5" x2="20" y2="98.5" style="stroke: black; stroke-width: 0.26249999999999996pt; stroke-linecap: round; stroke-linejoin:round;"/>
<line id="segm31:Line" x1="15" y1="148.5" x2="20" y2="148.5" style="stroke: black; stroke-width: 0.26249999999999996pt; stroke-linecap: round; stroke-linejoin:round;"/>
<line id="segm32:Line" x1="15" y1="198.5" x2="20" y2="198.5" style="stroke: black; stroke-width: 0.26249999999999996pt; stroke-linecap: round; stroke-linejoin:round;"/>
<line id="segm33:Line" x1="15" y1="248.5" x2="20" y2="248.5" style="stroke: black; stroke-width: 0.26249999999999996pt; stroke-linecap: round; stroke-linejoin:round;"/>
<line id="segm34:Line" x1="205" y1="48.5" x2="200" y2="48.5" style="stroke: black; stroke-width: 0.26249999999999996pt; stroke-linecap: round; stroke-linejoin:round;"/>
<line id="segm35:Line" x1="205" y1="98.5" x2="200" y2="98.5" style="stroke: black; stroke-width: 0.26249999999999996pt; stroke-linecap: round; stroke-linejoin:round;"/>
<line id="segm36:Line" x1="205" y1="148.5" x2="200" y2="148.5" style="stroke: black; stroke-width: 0.26249999999999996pt; stroke-linecap: round; stroke-linejoin:round;"/>
<line id="segm37:Line" x1="205" y1="198.5" x2="200" y2="198.5" style="stroke: black; stroke-width: 0.26249999999999996pt; stroke-linecap: round; stroke-linejoin:round;"/>
<line id="segm38:Line" x1="205" y1="248.5" x2="200" y2="248.5" style="stroke: black; stroke-width: 0.26249999999999996pt; stroke-linecap: round; stroke-linejoin:round;"/>
<text x="30" y="7.5" transform="translate(0,1.2249999999999999)" id="text8:Text" style="font-size: 3.5pt; text-anchor: middle; fill: black; font-family: osifont">1</text>
<text x="80" y="7.5" transform="translate(0,1.2249999999999999)" id="text9:Text" style="font-size: 3.5pt; text-anchor: middle; fill: black; font-family: osifont">2</text>
<text x="130" y="7.5" transform="translate(0,1.2249999999999999)" id="text10:Text" style="font-size: 3.5pt; text-anchor: middle; fill: black; font-family: osifont">3</text>
<text x="180" y="7.5" transform="translate(0,1.2249999999999999)" id="text11:Text" style="font-size: 3.5pt; text-anchor: middle; fill: black; font-family: osifont">4</text>
<text x="180" y="289.5" transform="translate(0,1.2249999999999999)" id="text18:Text" style="font-size: 3.5pt; text-anchor: middle; fill: black; font-family: osifont">A4</text>
<text x="202.5" y="23.5" transform="translate(0,1.2249999999999999)" id="text12:Text" style="font-size: 3.5pt; text-anchor: middle; fill: black; font-family: osifont">A</text>
<text x="202.5" y="73.5" transform="translate(0,1.2249999999999999)" id="text13:Text" style="font-size: 3.5pt; text-anchor: middle; fill: black; font-family: osifont">B</text>
<text x="202.5" y="123.5" transform="translate(0,1.2249999999999999)" id="text14:Text" style="font-size: 3.5pt; text-anchor: middle; fill: black; font-family: osifont">C</text>
<text x="202.5" y="173.5" transform="translate(0,1.2249999999999999)" id="text15:Text" style="font-size: 3.5pt; text-anchor: middle; fill: black; font-family: osifont">D</text>
<text x="202.5" y="223.5" transform="translate(0,1.2249999999999999)" id="text16:Text" style="font-size: 3.5pt; text-anchor: middle; fill: black; font-family: osifont">E</text>
<text x="202.5" y="273.5" transform="translate(0,1.2249999999999999)" id="text17:Text" style="font-size: 3.5pt; text-anchor: middle; fill: black; font-family: osifont">F</text>
<g transform="translate(0,0)"><polygon id="poly1:Poly" transform="rotate(0)" points="0,0 10,0 10,5 5,5 5,10 0,10 0,0 " style="fill: solid black; stroke-width: 0.26249999999999996pt; stroke-linecap: round; stroke-linejoin: round;"/></g>
<g transform="translate(0,297)"><polygon id="poly2:Poly" transform="rotate(270)" points="0,0 10,0 10,5 5,5 5,10 0,10 0,0 " style="fill: solid black; stroke-width: 0.26249999999999996pt; stroke-linecap: round; stroke-linejoin: round;"/></g>
<g transform="translate(210,0)"><polygon id="poly3:Poly" transform="rotate(450)" points="0,0 10,0 10,5 5,5 5,10 0,10 0,0 " style="fill: solid black; stroke-width: 0.26249999999999996pt; stroke-linecap: round; stroke-linejoin: round;"/></g>
<g transform="translate(210,297)"><polygon id="poly4:Poly" transform="rotate(180)" points="0,0 10,0 10,5 5,5 5,10 0,10 0,0 " style="fill: solid black; stroke-width: 0.26249999999999996pt; stroke-linecap: round; stroke-linejoin: round;"/></g>
<rect x="20" y="251" width="180" height="36" id="rect3:Rect" style="stroke: black; stroke-width: 0.5249999999999999pt; stroke-linecap: round; stroke-linejoin: round; fill: none;"/>
<line id="segm41:Line" x1="200" y1="260" x2="20" y2="260" style="stroke: black; stroke-width: 0.26249999999999996pt; stroke-linecap: round; stroke-linejoin:round;"/>
<line id="segm42:Line" x1="200" y1="269" x2="94" y2="269" style="stroke: black; stroke-width: 0.26249999999999996pt; stroke-linecap: round; stroke-linejoin:round;"/>
<line id="segm43:Line" x1="200" y1="278" x2="149" y2="278" style="stroke: black; stroke-width: 0.26249999999999996pt; stroke-linecap: round; stroke-linejoin:round;"/>
<line id="segm44:Line" x1="52" y1="251" x2="52" y2="260" style="stroke: black; stroke-width: 0.26249999999999996pt; stroke-linecap: round; stroke-linejoin:round;"/>
<line id="segm45:Line" x1="94" y1="251" x2="94" y2="287" style="stroke: black; stroke-width: 0.26249999999999996pt; stroke-linecap: round; stroke-linejoin:round;"/>
<line id="segm46:Line" x1="136" y1="251" x2="136" y2="260" style="stroke: black; stroke-width: 0.26249999999999996pt; stroke-linecap: round; stroke-linejoin:round;"/>
<line id="segm47:Line" x1="178" y1="251" x2="178" y2="260" style="stroke: black; stroke-width: 0.26249999999999996pt; stroke-linecap: round; stroke-linejoin:round;"/>
<line id="segm48:Line" x1="149" y1="260" x2="149" y2="287" style="stroke: black; stroke-width: 0.26249999999999996pt; stroke-linecap: round; stroke-linejoin:round;"/>
<line id="segm49:Line" x1="158" y1="278" x2="158" y2="287" style="stroke: black; stroke-width: 0.26249999999999996pt; stroke-linecap: round; stroke-linejoin:round;"/>
<line id="segm50:Line" x1="182" y1="278" x2="182" y2="287" style="stroke: black; stroke-width: 0.26249999999999996pt; stroke-linecap: round; stroke-linejoin:round;"/>
<line id="segm51:Line" x1="191" y1="278" x2="191" y2="287" style="stroke: black; stroke-width: 0.26249999999999996pt; stroke-linecap: round; stroke-linejoin:round;"/>
<text x="21" y="253" transform="translate(0,0.7)" id="text41:Text" style="font-size: 2pt; text-anchor: start; fill: black; font-family: osifont">Responsible dept.</text>
<text x="53" y="253" transform="translate(0,0.7)" id="text42:Text" style="font-size: 2pt; text-anchor: start; fill: black; font-family: osifont">Technical reference</text>
<text x="95" y="253" transform="translate(0,0.7)" id="text43:Text" style="font-size: 2pt; text-anchor: start; fill: black; font-family: osifont">Created by</text>
<text x="137" y="253" transform="translate(0,0.7)" id="text44:Text" style="font-size: 2pt; text-anchor: start; fill: black; font-family: osifont">Approved by</text>
<text x="95" y="262" transform="translate(0,0.7)" id="text45:Text" style="font-size: 2pt; text-anchor: start; fill: black; font-family: osifont">Document type</text>
<text x="150" y="262" transform="translate(0,0.7)" id="text46:Text" style="font-size: 2pt; text-anchor: start; fill: black; font-family: osifont">Document status</text>
<text x="95" y="271" transform="translate(0,0.7)" id="text47:Text" style="font-size: 2pt; text-anchor: start; fill: black; font-family: osifont">Title, Supplementary title</text>
<text x="150" y="280" transform="translate(0,0.7)" id="text48:Text" style="font-size: 2pt; text-anchor: start; fill: black; font-family: osifont">Rev.</text>
<text x="159" y="280" transform="translate(0,0.7)" id="text49:Text" style="font-size: 2pt; text-anchor: start; fill: black; font-family: osifont">Date of issue</text>
<text x="182.5" y="280" transform="translate(0,0.7)" id="text50:Text" style="font-size: 2pt; text-anchor: start; fill: black; font-family: osifont">Lang.</text>
<text x="191" y="280" transform="translate(0,0.7)" id="text51:Text" style="font-size: 2pt; text-anchor: start; fill: black; font-family: osifont">Sheet</text>
<text freecad:editable="Organization" x="57" y="273.5" transform="translate(0,0.8049999999999999)" id="text52:Text" style="font-size: 2.3pt; text-anchor: middle; fill: black; font-family: osifont"><tspan>x</tspan></text>
<text freecad:editable="Comment 2" x="95" y="266" transform="translate(0,0.8049999999999999)" id="text53:Text" style="font-size: 2.3pt; text-anchor: start; fill: black; font-family: osifont"><tspan>x</tspan></text>
<text freecad:editable="Title" x="121.5" y="279" transform="translate(0,0.8049999999999999)" id="text54:Text" style="font-size: 2.3pt; text-anchor: middle; fill: black; font-family: osifont"><tspan>x</tspan></text>
<text freecad:editable="Comment 3" x="150" y="266" transform="translate(0,0.8049999999999999)" id="text55:Text" style="font-size: 2.3pt; text-anchor: start; fill: black; font-family: osifont"><tspan>x</tspan></text>
<text freecad:editable="Comment 1" x="174.5" y="273.5" transform="translate(0,0.8049999999999999)" id="text56:Text" style="font-size: 2.3pt; text-anchor: middle; fill: black; font-family: osifont"><tspan>x</tspan></text>
<text freecad:editable="Revision" x="153.5" y="284" transform="translate(0,0.8049999999999999)" id="text57:Text" style="font-size: 2.3pt; text-anchor: middle; fill: black; font-family: osifont"><tspan>x</tspan></text>
<text freecad:editable="Date" x="170" y="284" transform="translate(0,0.8049999999999999)" id="text58:Text" style="font-size: 2.3pt; text-anchor: middle; fill: black; font-family: osifont"><tspan>x</tspan></text>
<text freecad:editable="Comment 4" x="186" y="284" transform="translate(0,0.8049999999999999)" id="text59:Text" style="font-size: 2.3pt; text-anchor: middle; fill: black; font-family: osifont"><tspan>x</tspan></text>
<text freecad:editable="SheetNo" x="195.5" y="284" transform="translate(0,0.8049999999999999)" id="text60:Text" style="font-size: 2.3pt; text-anchor: middle; fill: black; font-family: osifont"><tspan>x</tspan></text>
</svg>
